<?xml version="1.0" encoding="UTF-8" standalone="no"?>
<!-- Created with Inkscape (http://www.inkscape.org/) -->

<svg
   xmlns:dc="http://purl.org/dc/elements/1.1/"
   xmlns:cc="http://creativecommons.org/ns#"
   xmlns:rdf="http://www.w3.org/1999/02/22-rdf-syntax-ns#"
   xmlns:svg="http://www.w3.org/2000/svg"
   xmlns="http://www.w3.org/2000/svg"
   xmlns:xlink="http://www.w3.org/1999/xlink"
   xmlns:sodipodi="http://sodipodi.sourceforge.net/DTD/sodipodi-0.dtd"
   xmlns:inkscape="http://www.inkscape.org/namespaces/inkscape"
   sodipodi:docname="yumex-queue.svg"
   inkscape:version="0.46+devel"
   sodipodi:version="0.32"
   id="svg2913"
   height="48"
   width="48"
   inkscape:output_extension="org.inkscape.output.svg.inkscape"
   inkscape:export-filename="/home/tim/udv/work/yumex/gfx/button-queue.png"
   inkscape:export-xdpi="60"
   inkscape:export-ydpi="60"
   version="1.0"
   style="display:inline">
  <defs
     id="defs3">
    <inkscape:perspective
       sodipodi:type="inkscape:persp3d"
       inkscape:vp_x="0 : 24 : 1"
       inkscape:vp_y="0 : 1000 : 0"
       inkscape:vp_z="48 : 24 : 1"
       inkscape:persp3d-origin="24 : 16 : 1"
       id="perspective2895" />
    <linearGradient
       inkscape:collect="always"
       id="linearGradient8662">
      <stop
         style="stop-color:#000000;stop-opacity:1;"
         offset="0"
         id="stop8664" />
      <stop
         style="stop-color:#000000;stop-opacity:0;"
         offset="1"
         id="stop8666" />
    </linearGradient>
    <radialGradient
       inkscape:collect="always"
       xlink:href="#linearGradient8662"
       id="radialGradient8668"
       cx="24.837126"
       cy="36.421127"
       fx="24.837126"
       fy="36.421127"
       r="15.644737"
       gradientTransform="matrix(1,0,0,0.536723,0,16.87306)"
       gradientUnits="userSpaceOnUse" />
    <linearGradient
       id="linearGradient2555">
      <stop
         id="stop2557"
         offset="0"
         style="stop-color:#ffffff;stop-opacity:1;" />
      <stop
         style="stop-color:#e6e6e6;stop-opacity:1.0000000;"
         offset="0.50000000"
         id="stop2561" />
      <stop
         id="stop2563"
         offset="0.75000000"
         style="stop-color:#ffffff;stop-opacity:1.0000000;" />
      <stop
         style="stop-color:#e1e1e1;stop-opacity:1.0000000;"
         offset="0.84166664"
         id="stop2565" />
      <stop
         id="stop2559"
         offset="1.0000000"
         style="stop-color:#ffffff;stop-opacity:1.0000000;" />
    </linearGradient>
    <linearGradient
       id="linearGradient4274">
      <stop
         style="stop-color:#ffffff;stop-opacity:0.25490198;"
         offset="0.0000000"
         id="stop4276" />
      <stop
         style="stop-color:#ffffff;stop-opacity:1.0000000;"
         offset="1.0000000"
         id="stop4278" />
    </linearGradient>
    <linearGradient
       id="linearGradient4264"
       inkscape:collect="always">
      <stop
         id="stop4266"
         offset="0"
         style="stop-color:#000000;stop-opacity:1;" />
      <stop
         id="stop4268"
         offset="1"
         style="stop-color:#000000;stop-opacity:0;" />
    </linearGradient>
    <linearGradient
       id="linearGradient4254"
       inkscape:collect="always">
      <stop
         id="stop4256"
         offset="0"
         style="stop-color:#ffffff;stop-opacity:1;" />
      <stop
         id="stop4258"
         offset="1"
         style="stop-color:#ffffff;stop-opacity:0;" />
    </linearGradient>
    <linearGradient
       id="linearGradient4244">
      <stop
         id="stop4246"
         offset="0.0000000"
         style="stop-color:#e4e4e4;stop-opacity:1.0000000;" />
      <stop
         id="stop4248"
         offset="1.0000000"
         style="stop-color:#d3d3d3;stop-opacity:1.0000000;" />
    </linearGradient>
    <linearGradient
       id="linearGradient4236"
       inkscape:collect="always">
      <stop
         id="stop4238"
         offset="0"
         style="stop-color:#eeeeee;stop-opacity:1;" />
      <stop
         id="stop4240"
         offset="1"
         style="stop-color:#eeeeee;stop-opacity:0;" />
    </linearGradient>
    <linearGradient
       id="linearGradient4228">
      <stop
         id="stop4230"
         offset="0.0000000"
         style="stop-color:#bbbbbb;stop-opacity:1.0000000;" />
      <stop
         id="stop4232"
         offset="1.0000000"
         style="stop-color:#9f9f9f;stop-opacity:1.0000000;" />
    </linearGradient>
    <linearGradient
       id="linearGradient4184">
      <stop
         id="stop4186"
         offset="0.0000000"
         style="stop-color:#838383;stop-opacity:1.0000000;" />
      <stop
         id="stop4188"
         offset="1.0000000"
         style="stop-color:#bbbbbb;stop-opacity:0.0000000;" />
    </linearGradient>
    <linearGradient
       gradientTransform="translate(0.795493,3.79918)"
       y2="35.28125"
       x2="24.6875"
       y1="35.28125"
       x1="7.0625"
       gradientUnits="userSpaceOnUse"
       id="linearGradient4209"
       xlink:href="#linearGradient4184"
       inkscape:collect="always" />
    <linearGradient
       gradientUnits="userSpaceOnUse"
       y2="40.943935"
       x2="36.183067"
       y1="28.481176"
       x1="7.6046205"
       id="linearGradient4234"
       xlink:href="#linearGradient4228"
       inkscape:collect="always"
       gradientTransform="translate(0,5.125)" />
    <linearGradient
       gradientUnits="userSpaceOnUse"
       y2="33.758667"
       x2="12.221823"
       y1="37.205811"
       x1="12.277412"
       id="linearGradient4242"
       xlink:href="#linearGradient4236"
       inkscape:collect="always"
       gradientTransform="translate(0,5.125)" />
    <radialGradient
       gradientUnits="userSpaceOnUse"
       gradientTransform="matrix(1.286242,0.781698,-0.710782,1.169552,-2.354348,0.24814)"
       r="20.935818"
       fy="2.958519"
       fx="15.571491"
       cy="2.958519"
       cx="15.571491"
       id="radialGradient4250"
       xlink:href="#linearGradient4244"
       inkscape:collect="always" />
    <linearGradient
       gradientUnits="userSpaceOnUse"
       y2="47.620636"
       x2="44.0961"
       y1="4.433136"
       x1="12.378357"
       id="linearGradient4260"
       xlink:href="#linearGradient4254"
       inkscape:collect="always"
       gradientTransform="translate(0,5.125)" />
    <radialGradient
       gradientUnits="userSpaceOnUse"
       gradientTransform="matrix(1,0,0,0.651032,0,9.455693)"
       r="23.555494"
       fy="27.096155"
       fx="23.201941"
       cy="27.096155"
       cx="23.201941"
       id="radialGradient4270"
       xlink:href="#linearGradient4264"
       inkscape:collect="always" />
    <linearGradient
       gradientUnits="userSpaceOnUse"
       y2="26.357183"
       x2="23.688078"
       y1="11.318835"
       x1="23.688078"
       id="linearGradient4272"
       xlink:href="#linearGradient4274"
       inkscape:collect="always"
       gradientTransform="translate(0,5.125)" />
    <linearGradient
       inkscape:collect="always"
       xlink:href="#linearGradient2555"
       id="linearGradient2553"
       x1="33.431175"
       y1="31.964777"
       x2="21.747974"
       y2="11.780679"
       gradientUnits="userSpaceOnUse" />
    <linearGradient
       id="linearGradient3101">
      <stop
         style="stop-color:#000000;stop-opacity:1"
         offset="0"
         id="stop3103" />
      <stop
         style="stop-color:#000000;stop-opacity:0"
         offset="1"
         id="stop3105" />
    </linearGradient>
    <radialGradient
       inkscape:collect="always"
       xlink:href="#linearGradient3101"
       id="radialGradient4141"
       gradientUnits="userSpaceOnUse"
       gradientTransform="matrix(8.2122163,0,0,2.8875218,-61.277952,82.372403)"
       cx="17.3125"
       cy="25.53125"
       fx="17.3125"
       fy="25.53125"
       r="9.6875" />
    <radialGradient
       inkscape:collect="always"
       xlink:href="#linearGradient4264"
       id="radialGradient2946"
       gradientUnits="userSpaceOnUse"
       gradientTransform="matrix(1,0,0,0.651032,0,9.455693)"
       cx="23.201941"
       cy="27.096155"
       fx="23.201941"
       fy="27.096155"
       r="23.555494" />
    <linearGradient
       inkscape:collect="always"
       xlink:href="#linearGradient4228"
       id="linearGradient2948"
       gradientUnits="userSpaceOnUse"
       gradientTransform="translate(0,5.125)"
       x1="7.6046205"
       y1="28.481176"
       x2="36.183067"
       y2="40.943935" />
    <radialGradient
       inkscape:collect="always"
       xlink:href="#linearGradient4244"
       id="radialGradient2950"
       gradientUnits="userSpaceOnUse"
       gradientTransform="matrix(1.286242,0.781698,-0.710782,1.169552,-2.354348,0.24814)"
       cx="15.571491"
       cy="2.958519"
       fx="15.571491"
       fy="2.958519"
       r="20.935818" />
    <linearGradient
       inkscape:collect="always"
       xlink:href="#linearGradient4184"
       id="linearGradient2952"
       gradientUnits="userSpaceOnUse"
       gradientTransform="translate(0.795493,3.79918)"
       x1="7.0625"
       y1="35.28125"
       x2="24.6875"
       y2="35.28125" />
    <linearGradient
       inkscape:collect="always"
       xlink:href="#linearGradient4236"
       id="linearGradient2954"
       gradientUnits="userSpaceOnUse"
       gradientTransform="translate(0,5.125)"
       x1="12.277412"
       y1="37.205811"
       x2="12.221823"
       y2="33.758667" />
    <linearGradient
       inkscape:collect="always"
       xlink:href="#linearGradient4274"
       id="linearGradient2956"
       gradientUnits="userSpaceOnUse"
       gradientTransform="translate(0,5.125)"
       x1="23.688078"
       y1="11.318835"
       x2="23.688078"
       y2="26.357183" />
    <linearGradient
       inkscape:collect="always"
       xlink:href="#linearGradient4254"
       id="linearGradient2958"
       gradientUnits="userSpaceOnUse"
       gradientTransform="translate(0,5.125)"
       x1="12.378357"
       y1="4.433136"
       x2="44.0961"
       y2="47.620636" />
    <linearGradient
       inkscape:collect="always"
       xlink:href="#linearGradient2555"
       id="linearGradient2960"
       gradientUnits="userSpaceOnUse"
       x1="33.431175"
       y1="31.964777"
       x2="21.747974"
       y2="11.780679" />
    <linearGradient
       inkscape:collect="always"
       xlink:href="#linearGradient4254"
       id="linearGradient2981"
       gradientUnits="userSpaceOnUse"
       gradientTransform="translate(0.35809975,-0.1546167)"
       x1="12.378357"
       y1="4.433136"
       x2="44.0961"
       y2="47.620636" />
    <linearGradient
       inkscape:collect="always"
       xlink:href="#linearGradient4274"
       id="linearGradient2986"
       gradientUnits="userSpaceOnUse"
       gradientTransform="translate(0.35809975,-0.1546167)"
       x1="23.688078"
       y1="11.318835"
       x2="23.688078"
       y2="26.357183" />
    <linearGradient
       inkscape:collect="always"
       xlink:href="#linearGradient4236"
       id="linearGradient2990"
       gradientUnits="userSpaceOnUse"
       gradientTransform="translate(0.35809975,-0.1546167)"
       x1="12.277412"
       y1="37.205811"
       x2="12.221823"
       y2="33.758667" />
    <linearGradient
       inkscape:collect="always"
       xlink:href="#linearGradient4184"
       id="linearGradient2993"
       gradientUnits="userSpaceOnUse"
       gradientTransform="translate(1.1535927,-1.4804367)"
       x1="7.0625"
       y1="35.28125"
       x2="24.6875"
       y2="35.28125" />
    <radialGradient
       inkscape:collect="always"
       xlink:href="#linearGradient4244"
       id="radialGradient2996"
       gradientUnits="userSpaceOnUse"
       gradientTransform="matrix(1.286242,0.781698,-0.710782,1.169552,-1.9962482,-5.0314767)"
       cx="15.571491"
       cy="2.958519"
       fx="15.571491"
       fy="2.958519"
       r="20.935818" />
    <linearGradient
       inkscape:collect="always"
       xlink:href="#linearGradient4228"
       id="linearGradient2999"
       gradientUnits="userSpaceOnUse"
       gradientTransform="translate(0.35809975,-0.1546167)"
       x1="7.6046205"
       y1="28.481176"
       x2="36.183067"
       y2="40.943935" />
  </defs>
  <sodipodi:namedview
     inkscape:window-y="29"
     inkscape:window-x="0"
     inkscape:window-height="961"
     inkscape:window-width="1394"
     inkscape:document-units="px"
     inkscape:grid-bbox="true"
     showgrid="true"
     inkscape:current-layer="layer2"
     inkscape:cy="23.449067"
     inkscape:cx="14.806313"
     inkscape:zoom="14.520833"
     inkscape:pageshadow="2"
     inkscape:pageopacity="0.0"
     borderopacity="0.22745098"
     bordercolor="#666666"
     pagecolor="#ffffff"
     id="base"
     inkscape:showpageshadow="false"
     fill="#3465a4"
     stroke="#204a87">
    <inkscape:grid
       type="xygrid"
       id="grid2897"
       empspacing="4"
       visible="true"
       enabled="true"
       snapvisiblegridlinesonly="true" />
  </sodipodi:namedview>
  <metadata
     id="metadata4">
    <rdf:RDF>
      <cc:Work
         rdf:about="">
        <dc:format>image/svg+xml</dc:format>
        <dc:type
           rdf:resource="http://purl.org/dc/dcmitype/StillImage" />
        <dc:title />
        <dc:creator>
          <cc:Agent>
            <dc:title>Jakub Steiner</dc:title>
          </cc:Agent>
        </dc:creator>
        <dc:subject>
          <rdf:Bag>
            <rdf:li>hdd</rdf:li>
            <rdf:li>hard drive</rdf:li>
            <rdf:li>save</rdf:li>
            <rdf:li>io</rdf:li>
            <rdf:li>store</rdf:li>
          </rdf:Bag>
        </dc:subject>
        <cc:license
           rdf:resource="http://creativecommons.org/licenses/by-sa/2.0/" />
        <dc:identifier />
        <dc:source>http://jimmac.musichall.cz</dc:source>
      </cc:Work>
      <cc:License
         rdf:about="http://creativecommons.org/licenses/by-sa/2.0/">
        <cc:permits
           rdf:resource="http://web.resource.org/cc/Reproduction" />
        <cc:permits
           rdf:resource="http://web.resource.org/cc/Distribution" />
        <cc:requires
           rdf:resource="http://web.resource.org/cc/Notice" />
        <cc:requires
           rdf:resource="http://web.resource.org/cc/Attribution" />
        <cc:permits
           rdf:resource="http://web.resource.org/cc/DerivativeWorks" />
        <cc:requires
           rdf:resource="http://web.resource.org/cc/ShareAlike" />
      </cc:License>
    </rdf:RDF>
  </metadata>
  <g
     inkscape:label="pix"
     id="layer2"
     inkscape:groupmode="layer"
     style="display:inline">
    <path
       transform="matrix(1.052533,0,0,0.363113,-0.15365725,26.715243)"
       d="m 46.757435,27.096155 a 23.555494,15.335379 0 1 1 -47.11098877,0 23.555494,15.335379 0 1 1 47.11098877,0 z"
       sodipodi:ry="15.335379"
       sodipodi:rx="23.555494"
       sodipodi:cy="27.096155"
       sodipodi:cx="23.201941"
       id="path4262"
       style="opacity:0.56000001;color:#000000;fill:url(#radialGradient2946);fill-opacity:1;fill-rule:evenodd;stroke:none;stroke-width:1;marker:none;visibility:visible;display:inline;overflow:visible"
       sodipodi:type="arc" />
    <path
       sodipodi:nodetypes="cccsccccccccc"
       id="path4196"
       d="m 11.64379,7.8080113 c -0.625,0 -1.031249,0.29018 -1.281248,0.843753 -10e-7,0 -6.4687507,17.1035567 -6.4687507,17.1035567 0,0 -0.25,0.671559 -0.25,1.78125 0,0 0,9.649968 0,9.649968 0,1.082613 0.6577855,1.625002 1.65625,1.625 l 38.5624987,0 c 0.984853,0 1.59375,-0.71818 1.59375,-1.84375 l 0,-9.649968 c 0,0 0.105963,-0.770423 -0.09375,-1.3125 L 38.64379,8.8080143 c -0.184525,-0.511906 -0.636905,-0.988098 -1.125,-1.000003 l -25.875,0 z"
       style="fill:none;stroke:#535353;stroke-width:2;stroke-linecap:round;stroke-linejoin:round;stroke-miterlimit:4;stroke-opacity:1;stroke-dasharray:none" />
    <path
       sodipodi:nodetypes="ccccccccc"
       id="path4170"
       d="m 3.6316913,26.842195 0.7646021,-0.692215 37.6096896,0.0625 3.462407,0.317298 0,10.438532 c 0,1.125569 -0.607018,1.843331 -1.591871,1.843331 l -38.5829879,0 c -0.9984647,0 -1.6618399,-0.542051 -1.6618399,-1.624664 l 0,-10.344782 z"
       style="fill:url(#linearGradient2999);fill-opacity:1;fill-rule:evenodd;stroke:none" />
    <path
       sodipodi:nodetypes="csccccccs"
       id="path3093"
       d="m 3.9071839,25.759787 c -0.7142857,1.464286 -6.156e-4,2.392857 1.0357143,2.392857 0,0 38.9999988,0 38.9999988,0 1.119047,-0.02381 1.845238,-1.011905 1.428571,-2.142858 L 38.657182,8.7990873 C 38.472658,8.2871813 38.00242,7.8109893 37.514325,7.7990843 l -25.857142,0 c -0.625,0 -1.035714,0.303573 -1.285713,0.857146 0,0 -6.464286,17.1035567 -6.464286,17.1035567 z"
       style="fill:url(#radialGradient2996);fill-opacity:1;fill-rule:evenodd;stroke:none" />
    <rect
       y="31.019566"
       x="8.2160959"
       height="5.5625"
       width="17.625"
       id="rect4174"
       style="color:#000000;fill:url(#linearGradient2993);fill-opacity:1;fill-rule:evenodd;stroke:none;stroke-width:2.40899992;marker:none;visibility:visible;display:inline;overflow:visible" />
    <path
       sodipodi:nodetypes="cscc"
       id="path4194"
       d="m 8.2160945,36.582063 c 0,0 0,-4.011485 0,-4.011485 1.8355275,3.179226 8.2964905,4.011485 12.9374975,4.011485 0,0 -12.9374976,0 -12.9374976,0 z"
       style="opacity:0.81142853;fill:url(#linearGradient2990);fill-opacity:1;fill-rule:evenodd;stroke:none" />
    <path
       sodipodi:nodetypes="cccccccc"
       id="path4201"
       d="m 45.154262,25.474071 c 0.06352,1.249974 -0.414003,2.31584 -1.322116,2.34375 0,0 -38.1187166,-10e-7 -38.1187166,0 -1.2892319,0 -1.867736,-0.324947 -2.0840507,-0.868056 0.091761,0.944332 0.8258174,1.649306 2.0840507,1.649306 -1e-7,-10e-7 38.1187166,0 38.1187166,0 1.076007,-0.03307 1.752805,-1.424024 1.352164,-2.994791 l -0.03005,-0.130209 z"
       style="fill:#ffffff;fill-opacity:1;fill-rule:evenodd;stroke:none" />
    <path
       id="path4211"
       d="m 11.32685,10.001633 c -0.04608,0.200321 -0.1875,0.386797 -0.1875,0.59375 0,0.948605 0.59098,1.789474 1.34375,2.59375 0.240268,-0.154075 0.365117,-0.354408 0.625,-0.5 -0.940309,-0.816004 -1.553396,-1.716582 -1.78125,-2.6875 z m 26.65625,0 c -0.228727,0.969616 -0.842012,1.872426 -1.78125,2.6875 0.274144,0.153582 0.403988,0.36824 0.65625,0.53125 0.757262,-0.806656 1.3125,-1.673044 1.3125,-2.625 0,-0.206953 -0.141594,-0.393429 -0.1875,-0.59375 z m 2.1875,8.4375 c -0.613791,4.040111 -7.298613,7.25 -15.53125,7.25 -8.212254,10e-7 -14.8601501,-3.192786 -15.5000003,-7.21875 -0.032357,0.197132 -0.125,0.391882 -0.125,0.59375 3e-7,4.317947 6.9891043,7.843751 15.6250003,7.84375 8.635896,0 15.656249,-3.525802 15.65625,-7.84375 0,-0.212924 -0.08905,-0.417356 -0.125,-0.625 z"
       style="opacity:0.69142857;color:#000000;fill:url(#linearGradient2986);fill-opacity:1;fill-rule:evenodd;stroke:none;stroke-width:2;marker:none;visibility:visible;display:inline;overflow:visible" />
    <path
       transform="translate(0.44648818,0.0221633)"
       d="m 8.5736699,25.593554 a 1.3700194,1.016466 0 1 1 -2.7400389,0 1.3700194,1.016466 0 1 1 2.7400389,0 z"
       sodipodi:ry="1.016466"
       sodipodi:rx="1.3700194"
       sodipodi:cy="25.593554"
       sodipodi:cx="7.2036505"
       id="path4224"
       style="color:#000000;fill:#ffffff;fill-opacity:0.45762706;fill-rule:evenodd;stroke:none;stroke-width:2;marker:none;visibility:visible;display:inline;overflow:visible"
       sodipodi:type="arc" />
    <path
       sodipodi:type="arc"
       style="color:#000000;fill:#ffffff;fill-opacity:0.45762706;fill-rule:evenodd;stroke:none;stroke-width:2;marker:none;visibility:visible;display:inline;overflow:visible"
       id="path4226"
       sodipodi:cx="7.2036505"
       sodipodi:cy="25.593554"
       sodipodi:rx="1.3700194"
       sodipodi:ry="1.016466"
       d="m 8.5736699,25.593554 a 1.3700194,1.016466 0 1 1 -2.7400389,0 1.3700194,1.016466 0 1 1 2.7400389,0 z"
       transform="translate(34.32515,-0.0662267)" />
    <path
       style="fill:none;stroke:url(#linearGradient2981);stroke-width:1.00000024;stroke-linecap:round;stroke-linejoin:round;stroke-miterlimit:4;stroke-opacity:1;stroke-dasharray:none"
       d="m 12.000615,8.2611063 c -0.601692,0 -0.992791,0.279358 -1.233466,0.812287 -10e-7,0 -6.4150152,16.5907217 -6.4150152,16.5907217 0,0 -0.2406768,0.646515 -0.2406768,1.714823 0,0 0,9.290096 0,9.290096 0,1.35474 0.4440561,1.626899 1.5944841,1.626899 l 37.6869049,0 c 1.323126,0 1.534316,-0.316397 1.534316,-1.837492 l 0,-9.290096 c 0,0 0.10201,-0.741691 -0.09025,-1.263553 L 38.243716,9.0988173 c -0.177643,-0.492817 -0.550652,-0.82625 -1.020545,-0.837711 l -25.222556,0 z"
       id="path4252"
       sodipodi:nodetypes="cccsccccccccc" />
    <path
       style="fill:none;stroke:#ffffff;stroke-width:1.00000048px;stroke-linecap:square;stroke-linejoin:miter;stroke-opacity:0.42372885"
       d="m 40.8581,31.274549 0,5.020935"
       id="path4282" />
    <path
       id="path4284"
       d="m 38.8581,31.334326 0,5.020935"
       style="fill:none;stroke:#ffffff;stroke-width:1.00000048px;stroke-linecap:square;stroke-linejoin:miter;stroke-opacity:0.42372885" />
    <path
       style="fill:none;stroke:#ffffff;stroke-width:1.00000048px;stroke-linecap:square;stroke-linejoin:miter;stroke-opacity:0.42372885"
       d="m 36.8581,31.334326 0,5.020935"
       id="path4286" />
    <path
       id="path4288"
       d="m 34.8581,31.334326 0,5.020935"
       style="fill:none;stroke:#ffffff;stroke-width:1.00000048px;stroke-linecap:square;stroke-linejoin:miter;stroke-opacity:0.42372885" />
    <path
       style="fill:none;stroke:#ffffff;stroke-width:1.00000048px;stroke-linecap:square;stroke-linejoin:miter;stroke-opacity:0.42372885"
       d="m 32.8581,31.334326 0,5.020935"
       id="path4290" />
    <path
       id="path4292"
       d="m 30.8581,31.334326 0,5.020935"
       style="fill:none;stroke:#ffffff;stroke-width:1.00000048px;stroke-linecap:square;stroke-linejoin:miter;stroke-opacity:0.42372885" />
    <path
       id="path4294"
       d="m 39.8581,31.324448 0,5.020935"
       style="opacity:0.09714284;fill:none;stroke:#000000;stroke-width:1.00000048px;stroke-linecap:square;stroke-linejoin:miter;stroke-opacity:1" />
    <path
       style="opacity:0.09714284;fill:none;stroke:#000000;stroke-width:1.00000048px;stroke-linecap:square;stroke-linejoin:miter;stroke-opacity:1"
       d="m 37.8581,31.384225 0,5.020935"
       id="path4296" />
    <path
       id="path4298"
       d="m 35.8581,31.384225 0,5.020935"
       style="opacity:0.09714284;fill:none;stroke:#000000;stroke-width:1.00000048px;stroke-linecap:square;stroke-linejoin:miter;stroke-opacity:1" />
    <path
       style="opacity:0.09714284;fill:none;stroke:#000000;stroke-width:1.00000048px;stroke-linecap:square;stroke-linejoin:miter;stroke-opacity:1"
       d="m 33.8581,31.384225 0,5.020935"
       id="path4300" />
    <path
       id="path4302"
       d="m 31.8581,31.384225 0,5.020935"
       style="opacity:0.09714284;fill:none;stroke:#000000;stroke-width:1.00000048px;stroke-linecap:square;stroke-linejoin:miter;stroke-opacity:1" />
    <path
       id="path4572"
       d="m 8.2330997,31.032883 0,5.53125 12.5625003,0 -12.2187503,-0.34375 -0.34375,-5.1875 z"
       style="opacity:0.43999999;fill:#ffffff;fill-opacity:1;fill-rule:evenodd;stroke:none" />
    <path
       sodipodi:type="arc"
       style="opacity:0.20571427;color:#000000;fill:url(#linearGradient2960);fill-opacity:1;fill-rule:evenodd;stroke:none;stroke-width:0.93365198;marker:none;visibility:visible;display:inline;overflow:visible"
       id="path2545"
       sodipodi:cx="25"
       sodipodi:cy="19.5625"
       sodipodi:rx="14.875"
       sodipodi:ry="6.6875"
       d="m 39.875,19.5625 a 14.875,6.6875 0 1 1 -29.75,0 14.875,6.6875 0 1 1 29.75,0 z"
       transform="matrix(1.037815,0,0,1.060747,-1.2747782,-2.2492467)" />
    <g
       id="g3981"
       transform="matrix(0.15,0,0,0.15,23.062558,22.782073)">
      <path
         id="path1650"
         style="fill:#75ec00;fill-opacity:1;fill-rule:nonzero;stroke:#3f7f00;stroke-width:3.55514526;stroke-linecap:round;stroke-linejoin:round;stroke-miterlimit:4;stroke-opacity:1;stroke-dasharray:none;stroke-dashoffset:0"
         d="m 159.14754,80.934249 c 0,43.195951 -35.01726,78.213181 -78.213242,78.213181 -43.195977,0 -78.2132369,-35.01723 -78.2132365,-78.213181 -4e-7,-43.195951 35.0172595,-78.2131874 78.2132365,-78.2131874 43.195982,0 78.213242,35.0172364 78.213242,78.2131874 l 0,0 z" />
      <path
         sodipodi:nodetypes="csssc"
         id="path3068"
         style="fill:#fffeff;fill-opacity:0.30660376;fill-rule:nonzero;stroke:none"
         d="m 155.30664,77.152677 c 4.2457,42.632263 -22.76855,-16.20012 -70.255236,1.45361 C 37.188708,96.399803 3.9719013,123.48093 7.6787704,77.152677 11.051903,34.995442 40.747408,3.3387593 81.492703,3.3387593 c 40.745287,0 73.813937,33.0686327 73.813937,73.8139177 z" />
      <path
         id="path3392"
         style="fill:none;stroke:#a8ff4f;stroke-width:3.44019294;stroke-linecap:round;stroke-linejoin:round;stroke-miterlimit:4;stroke-opacity:1;stroke-dasharray:none;stroke-dashoffset:0"
         d="m 157.1429,80.59072 c 0,41.79925 -33.885,75.68424 -75.684265,75.68424 -41.799268,0 -75.6842653,-33.88499 -75.6842649,-75.68424 -4e-7,-41.799254 33.8849969,-75.6842442 75.6842649,-75.6842442 41.799265,0 75.684265,33.8849902 75.684265,75.6842442 l 0,0 z" />
      <path
         id="rect3139"
         d="m 66.24961,36.331202 0,29.785976 -29.785975,0 0,28.669 29.785975,0 0,29.785972 28.669001,0 0,-29.785972 29.785979,0 0,-28.669 -29.785979,0 0,-29.785976 -28.669001,0 z"
         style="fill:#ffffff;fill-opacity:1;fill-rule:nonzero;stroke:none" />
    </g>
  </g>
</svg>
